<svg xmlns="http://www.w3.org/2000/svg" xmlns:xlink="http://www.w3.org/1999/xlink" viewBox="0 0 230.7 94.02"><defs><style>.cls-1{isolation:isolate;}.cls-2,.cls-24{fill:#fff;}.cls-3{fill:#f15a24;}.cls-4{fill:url(#linear-gradient);}.cls-5{fill:url(#linear-gradient-2);}.cls-6{fill:url(#linear-gradient-3);}.cls-7{opacity:0.1;mix-blend-mode:overlay;}.cls-8{fill:url(#linear-gradient-4);}.cls-9{fill:url(#linear-gradient-5);}.cls-10{fill:url(#linear-gradient-6);}.cls-11{fill:url(#linear-gradient-7);}.cls-12{fill:url(#linear-gradient-8);}.cls-13{fill:url(#linear-gradient-9);}.cls-14{fill:url(#linear-gradient-10);}.cls-15{fill:url(#linear-gradient-11);}.cls-16{fill:url(#linear-gradient-12);}.cls-17{fill:url(#linear-gradient-13);}.cls-18{fill:url(#linear-gradient-14);}.cls-19{fill:url(#linear-gradient-15);}.cls-20{fill:url(#linear-gradient-16);}.cls-21{fill:url(#linear-gradient-17);}.cls-22{fill:url(#linear-gradient-18);}.cls-23{fill:url(#linear-gradient-19);}.cls-24{font-size:22.11px;font-family:Varela, Varela;}</style><linearGradient id="linear-gradient" x1="67.14" y1="96.43" x2="98.11" y2="96.43" gradientTransform="translate(-55.78 102.76) rotate(-48.83)" gradientUnits="userSpaceOnUse"><stop offset="0" stop-color="#ff3010"/><stop offset="1" stop-color="#991a14"/></linearGradient><linearGradient id="linear-gradient-2" x1="364.67" y1="829.86" x2="378.47" y2="829.86" gradientTransform="matrix(1, -0.07, 0.07, 1, -361.85, -694.84)" xlink:href="#linear-gradient"/><linearGradient id="linear-gradient-3" x1="397.28" y1="835.1" x2="380.64" y2="827.48" gradientTransform="matrix(1, -0.07, 0.07, 1, -361.85, -694.84)" gradientUnits="userSpaceOnUse"><stop offset="0" stop-color="#991a14"/><stop offset="1" stop-color="#4c0c02"/></linearGradient><linearGradient id="linear-gradient-4" x1="366.1" y1="817.92" x2="391.31" y2="817.92" gradientTransform="matrix(1, -0.07, 0.07, 1, -361.85, -694.84)" xlink:href="#linear-gradient"/><linearGradient id="linear-gradient-5" x1="369.78" y1="830.15" x2="372.54" y2="830.15" gradientTransform="matrix(0.86, 0.51, -0.51, 0.86, 165.89, -794.96)" gradientUnits="userSpaceOnUse"><stop offset="0" stop-color="#f1f2f2"/><stop offset="1" stop-color="#d1d3d4"/></linearGradient><linearGradient id="linear-gradient-6" x1="365.24" y1="832.36" x2="368.01" y2="832.36" gradientTransform="matrix(0.86, 0.51, -0.51, 0.86, 166.54, -792.05)" xlink:href="#linear-gradient-5"/><linearGradient id="linear-gradient-7" x1="374.58" y1="827.43" x2="377.35" y2="827.43" gradientTransform="translate(165.09 -798.08) rotate(30.53)" xlink:href="#linear-gradient-5"/><linearGradient id="linear-gradient-8" x1="365.26" y1="822.32" x2="368.03" y2="822.32" gradientTransform="matrix(0.86, 0.51, -0.51, 0.86, 160.97, -793.4)" xlink:href="#linear-gradient-5"/><linearGradient id="linear-gradient-9" x1="374.58" y1="838.04" x2="377.35" y2="838.04" gradientTransform="matrix(0.86, 0.51, -0.51, 0.86, 170.88, -796.66)" xlink:href="#linear-gradient-5"/><linearGradient id="linear-gradient-10" x1="380.33" y1="837.48" x2="383.16" y2="837.48" gradientTransform="matrix(0.54, 0.84, -0.84, 0.54, 571.05, -659.99)" xlink:href="#linear-gradient-5"/><linearGradient id="linear-gradient-11" x1="388.96" y1="832.72" x2="391.79" y2="832.72" gradientTransform="matrix(0.54, 0.84, -0.84, 0.54, 570.73, -669.94)" xlink:href="#linear-gradient-5"/><linearGradient id="linear-gradient-12" x1="380.33" y1="827.46" x2="383.16" y2="827.46" gradientTransform="translate(561.99 -664.54) rotate(57.12)" xlink:href="#linear-gradient-5"/><linearGradient id="linear-gradient-13" x1="388.95" y1="822.7" x2="391.79" y2="822.7" gradientTransform="matrix(0.54, 0.84, -0.84, 0.54, 561.83, -674.38)" xlink:href="#linear-gradient-5"/><linearGradient id="linear-gradient-14" x1="384.96" y1="817.64" x2="388.95" y2="817.64" gradientTransform="translate(-262.98 -742.38) rotate(3.12)" xlink:href="#linear-gradient-5"/><linearGradient id="linear-gradient-15" x1="381.31" y1="815.25" x2="385.3" y2="815.25" gradientTransform="matrix(1, 0.05, -0.05, 1, -263.2, -741.96)" xlink:href="#linear-gradient-5"/><linearGradient id="linear-gradient-16" x1="376.94" y1="812.74" x2="380.94" y2="812.74" gradientTransform="translate(-263.45 -741.45) rotate(3.13)" xlink:href="#linear-gradient-5"/><linearGradient id="linear-gradient-17" x1="368.38" y1="817.64" x2="372.38" y2="817.64" gradientTransform="translate(-262.77 -740.45) rotate(3.14)" xlink:href="#linear-gradient-5"/><linearGradient id="linear-gradient-18" x1="372.71" y1="820.11" x2="376.71" y2="820.11" gradientTransform="translate(-262.44 -740.99) rotate(3.14)" xlink:href="#linear-gradient-5"/><linearGradient id="linear-gradient-19" x1="376.71" y1="823.03" x2="380.7" y2="823.03" gradientTransform="matrix(1, 0.05, -0.05, 1, -262.08, -741.48)" xlink:href="#linear-gradient-5"/></defs><title>logo_whitedices</title><g class="cls-1"><g id="Layer_1" data-name="Layer 1"><path class="cls-2" d="M71.31,161l8-.5-2.36-38-8,.5ZM51.69,118.67q-7.62-6.08-21-5.25l-17.14,1.07,3.11,49.91,16.57-1q14.42-.9,21-8.12T60,136.39Q59.31,124.75,51.69,118.67Zm-4.17,31.51Q43,154.8,33.9,155.37l-9.35.58-2.13-34.2,8.43-.52q19.64-1.22,20.7,15.91Q52.07,145.56,47.52,150.18Zm150.62-16.51a22.58,22.58,0,0,0-3.73-1.77q-1.72-.61-3.54-1.07t-4.18-.89a17.93,17.93,0,0,1-3.68-1,2.84,2.84,0,0,1-2-2.6,3.38,3.38,0,0,1,1.59-3.22,9.2,9.2,0,0,1,4.58-1.32,17.94,17.94,0,0,1,10.26,2.44l2.63-6.11a22.26,22.26,0,0,0-12.67-3.08q-6.57.41-10.48,3.84a10.18,10.18,0,0,0-3.58,8.72q.47,7.5,12.52,10a9,9,0,0,1,.87.23q7.71,1.81,7.89,4.67a3.9,3.9,0,0,1-1.37,3.28,6.71,6.71,0,0,1-4.21,1.52q-6.21.39-13.16-4.2l-3.47,6.45a25.88,25.88,0,0,0,8.15,3.72,27,27,0,0,0,8.7,1,15.3,15.3,0,0,0,9.87-3.88,10.71,10.71,0,0,0,3.39-8.92Q202.15,136,198.14,133.67Zm-38.32-12.2a19.53,19.53,0,0,0-13.47-3.86,19.21,19.21,0,0,0-13.13,6.12q-5.39,5.64-4.83,14.6t6.49,13.93a19.07,19.07,0,0,0,13.93,4.47q9.85-.61,15.6-7.35l-4.88-4.71q-3.43,4.73-10.57,5.17a13.31,13.31,0,0,1-8.16-2,8.67,8.67,0,0,1-4.2-6.44l29.78-1.85L166,134Q165.54,125.81,159.82,121.47Zm-23.6,13.62a8.66,8.66,0,0,1,3-7.47,12.68,12.68,0,0,1,7.72-3.17,11,11,0,0,1,7.55,2.11,9.18,9.18,0,0,1,3.46,7.17Zm-27.66,16.85a12.46,12.46,0,0,1-13.38-11.75,11,11,0,0,1,3.14-8.8,12.54,12.54,0,0,1,8.47-3.86q5-.31,10.19,3.67l4.35-6.08a19.76,19.76,0,0,0-14.86-5,20.77,20.77,0,0,0-14.19,6.37A18.37,18.37,0,0,0,87.2,141q.54,8.71,6.59,13.75a19.22,19.22,0,0,0,14,4.54q9.07-.56,15.56-8l-5-4.85Q113.88,151.61,108.56,151.94Z" transform="translate(-13.51 -76.48)"/><path class="cls-3" d="M100.53,84.46Q94.16,80.18,83,80.87q-5.79.36-6.29.93a1.19,1.19,0,0,0,0,.51A13.35,13.35,0,0,0,77.79,85a20,20,0,0,0,1.7,3.15l1.16,21.18q.57,9.22.92,9.52a5,5,0,0,0,2.48.17,33,33,0,0,0,10-2.45,23.24,23.24,0,0,0,5.22-3,25.47,25.47,0,0,0,4.36-4.2,16.64,16.64,0,0,0,3-5.67,19.87,19.87,0,0,0,.79-7.18A15,15,0,0,0,100.53,84.46Zm-1,18.48a12.49,12.49,0,0,1-2.36,4.37A15.81,15.81,0,0,1,94,110.13a14.72,14.72,0,0,1-3.13,1.62,8.6,8.6,0,0,1-2,.5,1.5,1.5,0,0,1-.78-.06q-.4-.35-1.16-12.62T86.45,86.9s.23-.07.69-.1a15.94,15.94,0,0,1,5.59.73,12.91,12.91,0,0,1,3.43,1.59,9.13,9.13,0,0,1,2.72,3.06,11.25,11.25,0,0,1,1.39,5.05A15,15,0,0,1,99.56,102.95Zm23.94-12.5a8.89,8.89,0,0,0-4.44,2.64,9,9,0,0,0-1.33,1.66q-.58.92-.74,1.26l-.24.5a.29.29,0,0,1-.18.18,6.08,6.08,0,0,1-.55-1.77,30.17,30.17,0,0,1-.63-3.24q-.06-.26-1.29,0a9.09,9.09,0,0,0-2.52,1.09,5.09,5.09,0,0,0-1.73,1.5,11.68,11.68,0,0,0,.6,3.34l3,11.81a59.93,59.93,0,0,1,1.67,8.33c0,.1.18.12.46.05q4.27-1.05,5.39-2.82a54,54,0,0,0-1.42-6.45L118.42,104a4.13,4.13,0,0,1,.37-2.08,7,7,0,0,1,5.13-4.53l.7-.06.11-.47a9.18,9.18,0,0,0-.31-4.4A4.2,4.2,0,0,0,123.49,90.45Zm77,16.1a21.42,21.42,0,0,1-5-4.18A53.87,53.87,0,0,1,191,97.15a18,18,0,0,1-1.77-2.7A11.57,11.57,0,0,1,191,91.61a43.11,43.11,0,0,1,2.87-3.75q-.35-1.18-3.95-2.2-.93.27-3.4,3.85a53.69,53.69,0,0,0-3.61,5.82l-.09.08c-.1,0-.2,0-.29-.22s-.33-.95-.73-2.3-1.22-4.37-2.46-9-1.87-7.1-1.88-7.28-.49-.08-1.35.17a7.39,7.39,0,0,0-2.51,1.35,6.45,6.45,0,0,0-1.66,1.77q-.18.33,1.28,5.33l5.4,17.83a90.6,90.6,0,0,1,2.87,11.3q0,.15,1.1-.16a13.77,13.77,0,0,0,2.6-1.15,4.91,4.91,0,0,0,2-1.71,5.2,5.2,0,0,0-.4-2.12l-1.7-5.21a5.14,5.14,0,0,1,.49-2.33,5.33,5.33,0,0,1,.85-1.87l.15.12q1.45,2.48,4.65,6.8t3.82,4.14a11.09,11.09,0,0,0,3.64-2.08Q200.67,107.16,200.49,106.55Zm-27.16-11a24,24,0,0,0-1-2.74A6.94,6.94,0,0,0,171,90.56a5.91,5.91,0,0,0-1.88-1.25,5.83,5.83,0,0,0-2.71-.4,7,7,0,0,0-3.26,1.14A10.14,10.14,0,0,0,161,91.7a9,9,0,0,0-.75,1l-.15.12q-.16,0-.24-1.28a20.72,20.72,0,0,1,0-2.58q0-.27-1.28-.19a9.09,9.09,0,0,0-2.68.62,5.08,5.08,0,0,0-2,1.17q-.25.28,0,3.61l.91,12a58.35,58.35,0,0,1,.12,8q0,.16,1.11.09a13.77,13.77,0,0,0,2.79-.55,4.91,4.91,0,0,0,2.34-1.22q.2-.23-.16-6l-.25-4.07-.18-2,0-.75.32-.93a4.64,4.64,0,0,1,1.3-2,4.2,4.2,0,0,1,2.81-1.14q1.77-.11,2.5,2.13a29.28,29.28,0,0,1,1,6.77,85,85,0,0,1,0,9.38l1.79.16a15.53,15.53,0,0,0,2.82-.53q1.75-.46,1.72-.83l-.23-6.28q-.28-4.55-.63-7.49A27.67,27.67,0,0,0,173.33,95.53Zm-24.52,7.93q-.26-4.18-.42-11.86l-.05-2.53a3.21,3.21,0,0,0-1.62-.11,7.93,7.93,0,0,0-2.78.71,3.39,3.39,0,0,0-1.62,1.12q-.28.77.34,10.58l.11,1.82a4.62,4.62,0,0,1-1.11,2.46,3.78,3.78,0,0,1-2.9,1.87,2.64,2.64,0,0,1-2.59-1.4,4.71,4.71,0,0,1-.48-1.26q-.18-.74-.23-1t-.16-1.33q-.12-1-.26-3.24T134.92,93q0-1.4,0-1.45a2.52,2.52,0,0,0-1.52-.17,7.19,7.19,0,0,0-4.43,1.41q-.42,1.1-.06,6.89t.55,7.17q1.35,8.68,7,8.33a7.42,7.42,0,0,0,3.76-1.42,10,10,0,0,0,3-3.36l.06.1.12,1.12a12.71,12.71,0,0,0,.84,3.07q.63,1.57,1.06,1.55A8.31,8.31,0,0,0,149,114.8q2.12-1.32,2.09-1.85a10.26,10.26,0,0,1-1.71-4.2A38.36,38.36,0,0,1,148.81,103.46Z" transform="translate(-13.51 -76.48)"/><path class="cls-4" d="M70.14,88.24a3.47,3.47,0,0,1,1.72.29l11.39,5.59a3.76,3.76,0,0,1,1.89,2.82L86,109.21a3.76,3.76,0,0,1-1.5,3l-10.54,7.06a3.76,3.76,0,0,1-3.38.23l-11.39-5.59a3.76,3.76,0,0,1-1.89-2.82l-.82-12.27a3.76,3.76,0,0,1,1.5-3l10.54-7.06a3.47,3.47,0,0,1,1.66-.52" transform="translate(-13.51 -76.48)"/><path class="cls-5" d="M71.86,117.56c.07,1.13-.69,1.65-1.71,1.15l-10.6-5.16a3.93,3.93,0,0,1-2-2.95l-.77-11.5c-.08-1.13.69-1.65,1.71-1.15l10.6,5.16a3.93,3.93,0,0,1,2,2.95Z" transform="translate(-13.51 -76.48)"/><path class="cls-6" d="M72.33,117.53c.08,1.13.91,1.54,1.85.91L84,111.92a3.93,3.93,0,0,0,1.57-3.19l-.77-11.5c-.08-1.13-.91-1.54-1.85-.91l-9.82,6.52A3.93,3.93,0,0,0,71.56,106Z" transform="translate(-13.51 -76.48)"/><g class="cls-7"><path class="cls-2" d="M74.18,118.44,84,111.92a3.93,3.93,0,0,0,1.57-3.19l-.77-11.5c0-.74-.43-1.17-.95-1.2A99.39,99.39,0,0,1,79,108.34c-2.56,5-5.93,10.35-5.93,10.35A1.33,1.33,0,0,0,74.18,118.44Z" transform="translate(-13.51 -76.48)"/></g><g class="cls-7"><path class="cls-2" d="M69.91,118.73l-10.36-5a3.84,3.84,0,0,1-1.94-2.88l-.75-11.24c0-.72.26-1.19.76-1.29a97.18,97.18,0,0,0,6.32,11.29c3.13,4.54,7.09,9.26,7.09,9.26A1.31,1.31,0,0,1,69.91,118.73Z" transform="translate(-13.51 -76.48)"/></g><path class="cls-8" d="M71.42,89a3,3,0,0,0-2.67.18L58.58,95.92a.81.81,0,0,0,.1,1.54l11.21,5.47a3,3,0,0,0,2.67-.18L82.73,96a.81.81,0,0,0-.1-1.54Z" transform="translate(-13.51 -76.48)"/><ellipse class="cls-9" cx="63.95" cy="108.65" rx="1.09" ry="1.99" transform="translate(-63.67 -21.44) rotate(-34.36)"/><path class="cls-2" d="M63.54,109a2.59,2.59,0,0,1-.54-1.68c-.34.32-.24,1.12.25,1.83s1.1,1,1.53.93A2.82,2.82,0,0,1,63.54,109Z" transform="translate(-13.51 -76.48)"/><ellipse class="cls-10" cx="59.56" cy="111.16" rx="1.09" ry="1.99" transform="translate(-65.85 -23.47) rotate(-34.36)"/><path class="cls-2" d="M59.16,111.49a2.59,2.59,0,0,1-.54-1.68c-.34.32-.24,1.12.25,1.83s1.1,1,1.53.93A2.82,2.82,0,0,1,59.16,111.49Z" transform="translate(-13.51 -76.48)"/><ellipse class="cls-11" cx="68.55" cy="105.61" rx="1.09" ry="1.99" transform="matrix(0.83, -0.56, 0.56, 0.83, -61.16, -19.35)"/><path class="cls-2" d="M68.15,105.94a2.59,2.59,0,0,1-.54-1.68c-.34.32-.24,1.12.25,1.83s1.1,1,1.53.93A2.83,2.83,0,0,1,68.15,105.94Z" transform="translate(-13.51 -76.48)"/><ellipse class="cls-12" cx="58.91" cy="101.14" rx="1.09" ry="1.99" transform="translate(-60.32 -25.57) rotate(-34.37)"/><path class="cls-2" d="M58.51,101.46A2.58,2.58,0,0,1,58,99.78c-.34.32-.24,1.12.25,1.83s1.1,1,1.53.93A2.82,2.82,0,0,1,58.51,101.46Z" transform="translate(-13.51 -76.48)"/><ellipse class="cls-13" cx="69.26" cy="116.2" rx="1.09" ry="1.99" transform="translate(-66.99 -17.15) rotate(-34.35)"/><path class="cls-2" d="M68.86,116.53a2.58,2.58,0,0,1-.54-1.68c-.34.32-.24,1.12.25,1.83s1.1,1,1.53.93A2.82,2.82,0,0,1,68.86,116.53Z" transform="translate(-13.51 -76.48)"/><ellipse class="cls-14" cx="75" cy="115.25" rx="1.99" ry="1.09" transform="translate(-75.68 48.37) rotate(-60.95)"/><path class="cls-2" d="M75.47,115.47a2.59,2.59,0,0,1-1.26,1.24c.44.16,1.11-.28,1.53-1a1.71,1.71,0,0,0,.15-1.78A2.83,2.83,0,0,1,75.47,115.47Z" transform="translate(-13.51 -76.48)"/><ellipse class="cls-15" cx="83.28" cy="109.93" rx="1.99" ry="1.09" transform="translate(-66.76 52.89) rotate(-60.96)"/><path class="cls-2" d="M83.75,110.14a2.59,2.59,0,0,1-1.26,1.24c.44.16,1.11-.28,1.53-1a1.71,1.71,0,0,0,.15-1.78A2.82,2.82,0,0,1,83.75,110.14Z" transform="translate(-13.51 -76.48)"/><ellipse class="cls-16" cx="74.33" cy="105.26" rx="1.99" ry="1.09" transform="translate(-67.29 42.64) rotate(-60.95)"/><path class="cls-2" d="M74.8,105.47a2.58,2.58,0,0,1-1.26,1.24c.44.16,1.11-.28,1.53-1a1.71,1.71,0,0,0,.15-1.78A2.82,2.82,0,0,1,74.8,105.47Z" transform="translate(-13.51 -76.48)"/><ellipse class="cls-17" cx="82.61" cy="99.93" rx="1.99" ry="1.09" transform="translate(-58.36 47.19) rotate(-60.97)"/><path class="cls-2" d="M83.08,100.15a2.58,2.58,0,0,1-1.26,1.24c.44.16,1.11-.28,1.53-1a1.71,1.71,0,0,0,.15-1.78A2.83,2.83,0,0,1,83.08,100.15Z" transform="translate(-13.51 -76.48)"/><ellipse class="cls-18" cx="78.87" cy="95.11" rx="2" ry="1.1" transform="translate(-24.44 -66.24) rotate(-6.95)"/><path class="cls-2" d="M79,95.62a2.59,2.59,0,0,1-1.75-.29c.13.45.88.73,1.75.62s1.44-.49,1.53-.93A2.83,2.83,0,0,1,79,95.62Z" transform="translate(-13.51 -76.48)"/><ellipse class="cls-19" cx="75.06" cy="92.97" rx="2" ry="1.1" transform="translate(-24.22 -66.71) rotate(-6.96)"/><path class="cls-2" d="M75.17,93.48a2.59,2.59,0,0,1-1.75-.29c.13.45.88.73,1.75.62s1.44-.49,1.53-.93A2.83,2.83,0,0,1,75.17,93.48Z" transform="translate(-13.51 -76.48)"/><ellipse class="cls-20" cx="70.54" cy="90.75" rx="2" ry="1.1" transform="translate(-23.99 -67.26) rotate(-6.96)"/><path class="cls-2" d="M70.64,91.26A2.6,2.6,0,0,1,68.89,91c.13.45.88.73,1.75.62s1.44-.5,1.53-.93A2.83,2.83,0,0,1,70.64,91.26Z" transform="translate(-13.51 -76.48)"/><ellipse class="cls-21" cx="62.33" cy="96.22" rx="2" ry="1.1" transform="translate(-24.72 -68.21) rotate(-6.97)"/><path class="cls-2" d="M62.43,96.73a2.59,2.59,0,0,1-1.75-.29c.13.45.88.73,1.75.62s1.44-.5,1.53-.93A2.83,2.83,0,0,1,62.43,96.73Z" transform="translate(-13.51 -76.48)"/><ellipse class="cls-22" cx="66.82" cy="98.4" rx="2" ry="1.1" transform="translate(-24.95 -67.65) rotate(-6.97)"/><path class="cls-2" d="M66.92,98.9a2.59,2.59,0,0,1-1.75-.29c.13.45.88.73,1.75.62s1.44-.5,1.53-.93A2.83,2.83,0,0,1,66.92,98.9Z" transform="translate(-13.51 -76.48)"/><ellipse class="cls-23" cx="70.99" cy="101.04" rx="2" ry="1.1" transform="translate(-25.24 -67.12) rotate(-6.97)"/><path class="cls-2" d="M71.1,101.55a2.6,2.6,0,0,1-1.75-.29c.13.45.88.73,1.75.62s1.44-.5,1.53-.93A2.83,2.83,0,0,1,71.1,101.55Z" transform="translate(-13.51 -76.48)"/><text class="cls-24" transform="translate(179.34 87.72)">.com</text></g></g></svg>