<?xml version="1.0" encoding="utf-8"?>
<!-- Generator: Adobe Illustrator 21.0.0, SVG Export Plug-In . SVG Version: 6.00 Build 0)  -->
<svg version="1.1" id="Layer_1" xmlns="http://www.w3.org/2000/svg" xmlns:xlink="http://www.w3.org/1999/xlink" x="0px" y="0px"
	 viewBox="0 0 576 432" style="enable-background:new 0 0 576 432;" xml:space="preserve">
<style type="text/css">
	.st0{fill:#27AAE1;}
	.st1{fill:none;}
	.st2{fill:#51C9F2;}
</style>
<g>
	<g>
		<path class="st0" d="M258.7,262.9h5.7c0.9,0,1.7,0.3,2.4,1c0.7,0.7,1,1.5,1,2.5v22.2h-3.2v-22.2c0-0.1-0.1-0.2-0.2-0.2h-8.5
			c-0.6,0-1,0.3-1,0.9v21.5h-3.3v-22.2c0-0.1-0.1-0.2-0.2-0.2h-8.4c-0.6,0-1,0.3-1,0.9v21.5h-3.3v-25.7h3.3h3.7h5.7H258.7z"/>
		<path class="st0" d="M331.9,262.9c1,0,1.8,0.3,2.5,1c0.7,0.7,1,1.5,1,2.5v7.5c0,1-0.3,1.8-1,2.5c-0.7,0.7-1.5,1-2.5,1h-11.6v7
			c0,0.6,0.3,0.9,1,0.9h10.7c0.1,0,0.2-0.1,0.2-0.2v-1.6h3.3v1.6c0,0.9-0.3,1.8-1,2.4c-0.7,0.7-1.5,1-2.5,1h-10.7
			c-1.1,0-2.1-0.4-3-1.2c-0.8-0.8-1.2-1.8-1.2-3v-17.3c0-1.1,0.4-2.1,1.2-3c0.8-0.8,1.8-1.3,3-1.3H331.9z M332.1,266.4
			c0-0.1-0.1-0.2-0.2-0.2h-10.7c-0.6,0-1,0.3-1,0.9v7h11.6c0.1,0,0.2-0.1,0.2-0.2V266.4z"/>
		<path class="st0" d="M396,288.7h-7.9c-0.9,0-1.8-0.3-2.4-1c-0.7-0.7-1-1.5-1-2.4v-18.8c0-0.9,0.3-1.8,1-2.4c0.7-0.7,1.5-1,2.4-1
			h7.9l3.7,0v-17.7h3.3v43.4h-3.3H396z M399.7,267.1c0-0.6-0.3-1-0.9-1h-10.7c-0.1,0-0.2,0.1-0.2,0.2v18.8c0,0.1,0.1,0.2,0.2,0.2
			h10.7c0.6,0,0.9-0.3,0.9-0.9V267.1z"/>
		<path class="st0" d="M452.2,250.7h3.9v4.1h-3.9V250.7z M452.5,262.9h3.3v25.7h-3.3V262.9z"/>
		<path class="st0" d="M516.6,288.7h-7.9c-0.9,0-1.8-0.3-2.4-1c-0.7-0.7-1-1.5-1-2.4v-9.8c0-0.9,0.3-1.8,1-2.4c0.7-0.7,1.5-1,2.4-1
			h7.9l3.7,0v-4.8c0-0.6-0.3-0.9-0.9-0.9h-10.7c-0.1,0-0.2,0.1-0.2,0.2v1.6h-3.3v-1.6c0-1,0.3-1.8,1-2.5c0.7-0.7,1.5-1,2.4-1h10.7
			c1.2,0,2.2,0.4,3,1.3c0.8,0.8,1.2,1.8,1.2,3v21.5h-3.3H516.6z M520.3,276.2c0-0.6-0.3-1-0.9-1h-10.7c-0.1,0-0.2,0.1-0.2,0.2v9.8
			c0,0.1,0.1,0.2,0.2,0.2h10.7c0.6,0,0.9-0.3,0.9-0.9V276.2z"/>
	</g>
	<g>
		<path d="M292.6,200.3v-41h15.9V235h-15.9v-13.8c-2.6,4.7-6.1,8.3-10.6,11c-4.5,2.7-9.4,4-14.6,4c-8.5,0-15.4-2.6-20.7-7.8
			c-5.3-5.2-7.9-12.8-7.9-22.6v-46.4h15.9v41.6c0,13.9,5.8,20.9,17.4,20.9c5.5,0,10.3-1.8,14.4-5.5
			C290.6,212.7,292.6,207.3,292.6,200.3z"/>
		<path d="M364.2,174.3c-7.9,0-13.8,2.6-17.8,7.7c-4,5.1-6,12-6,20.6V235h-15.9v-75.7h15.9v15.2c2.6-4.7,6-8.6,10.5-11.7
			c4.4-3,9.1-4.6,14-4.7l0.1,16.1C364.8,174.3,364.5,174.3,364.2,174.3z"/>
		<path d="M374.9,144.2c-2-2-3-4.4-3-7.1c0-2.8,1-5.1,3-7.1c2-2,4.4-3,7.1-3c2.7,0,5.1,1,7.1,3c2,2,3,4.4,3,7.1c0,2.8-1,5.1-3,7.1
			c-2,2-4.4,3-7.1,3C379.2,147.2,376.9,146.2,374.9,144.2z M389.8,235h-15.9v-75.7h15.9V235z"/>
		<path d="M440.2,158.2c10.3,0,18.9,2.9,25.8,8.6c6.8,5.7,10.3,13.2,10.4,22.4l0.1,0.3l-55.2,23.2c4.9,6.1,11.6,9.1,20.1,9.1
			c8.5,0,15.5-3.3,21-10l9.4,10.4c-9,9.3-19.6,13.9-31.9,13.9c-10.7,0-19.9-3.6-27.6-10.7c-7.7-7.1-11.5-16.5-11.5-28.2
			c0-8.1,2-15.2,6-21.3c4-6.1,8.9-10.6,14.8-13.5C427.4,159.6,433.6,158.2,440.2,158.2z M416.1,197.6c0,1.2,0,2.1,0.1,2.7l42-18.1
			c-3.2-6.3-9-9.4-17.2-9.4c-6.3,0-12,2.2-17.1,6.5C418.7,183.7,416.1,189.8,416.1,197.6z"/>
		<path d="M523.6,229.6c-3.8,4.4-9.1,6.5-15.9,6.5c-6.8,0-12.3-2-16.4-6.1c-4.1-4.1-6.2-10.1-6.2-18.1v-76.4H501v74.6
			c0,7.6,2.8,11.4,8.5,11.4c3.3,0,5.7-1.2,7.1-3.6L523.6,229.6z"/>
	</g>
	<g>
		<path class="st1" d="M147.6,171.7l55.8-87L149.2,68L61.3,204.9l63.4,19.5l-58.2,90.8l1.9,26.4l21.5,6.6l32.1-18.1l89.1-138.9
			L147.6,171.7z M117.4,325.3l-7.2,4v0l-0.4,0.2l-20.6,11.7l-3.7-1.1l-4-1.2l-6.9-2.1l-1.4-19.8l61.7-96.2l-63.4-19.5l80.6-125.6
			l41.5,12.8l-55.8,87l40.7,12.5l4,1.2l11,3.4l4,1.2l3.8,1.2L117.4,325.3z"/>
		<polygon class="st0" points="197.2,193.7 196.1,195.4 112.5,325.7 110.2,329.3 117.4,325.3 201,194.9 		"/>
		<polygon class="st2" points="196.1,195.4 197.2,193.7 193.3,192.5 182.3,189.1 178.3,187.9 177.2,189.6 82.6,337.1 81.5,338.9 
			85.4,340.1 89.2,341.2 109.8,329.5 110.2,329.3 110.2,329.3 112.5,325.7 		"/>
		<path d="M162,166.4l55.8-87l-72.6-22.3L47,210.2l63.4,19.5l-53.3,83.2l1.9,25.9l2.6,36.2L91,358.2l3.2-1.8l7.8-4.4l26.5-15
			l96.9-151L162,166.4z M89.9,348.2l-21.5-6.6l-1.9-26.4l58.2-90.8l-63.4-19.5L149.2,68l54.3,16.7l-55.8,87l63.4,19.5L122,330.1
			L89.9,348.2z"/>
		<polygon class="st0" points="177.2,189.6 178.3,187.9 137.6,175.4 193.4,88.4 151.9,75.6 71.4,201.2 134.8,220.8 73.1,316.9 
			74.5,336.7 81.5,338.9 82.6,337.1 		"/>
	</g>
</g>
</svg>
